<?xml version="1.0" encoding="UTF-8" standalone="no"?>
<!DOCTYPE svg PUBLIC "-//W3C//DTD SVG 1.1//EN" "http://www.w3.org/Graphics/SVG/1.1/DTD/svg11.dtd">
<svg version="1.1" xmlns="http://www.w3.org/2000/svg" xmlns:xlink="http://www.w3.org/1999/xlink" preserveAspectRatio="xMidYMid meet" viewBox="134.68421052631578 143.67541182668592 104.5 104.5" width="100" height="100"><defs><path d="M199.65 145.18L199.72 145.19L199.79 145.2L199.85 145.21L199.92 145.22L199.98 145.24L200.04 145.26L200.11 145.28L200.17 145.31L200.23 145.33L200.28 145.36L200.34 145.39L200.4 145.43L200.45 145.46L200.5 145.5L200.55 145.54L200.6 145.58L200.65 145.62L200.7 145.66L200.74 145.71L200.78 145.76L200.82 145.81L200.86 145.86L200.9 145.91L200.93 145.96L200.97 146.02L201 146.08L201.03 146.13L201.05 146.19L201.08 146.25L201.1 146.32L201.12 146.38L201.14 146.44L201.15 146.51L201.16 146.57L201.17 146.64L201.18 146.71L201.18 146.77L201.18 146.84L201.18 180.18L234.52 180.18L234.59 180.18L234.65 180.18L234.72 180.19L234.79 180.2L234.85 180.21L234.92 180.22L234.98 180.24L235.04 180.26L235.11 180.28L235.17 180.31L235.23 180.33L235.28 180.36L235.34 180.39L235.4 180.43L235.45 180.46L235.5 180.5L235.55 180.54L235.6 180.58L235.65 180.62L235.7 180.66L235.74 180.71L235.78 180.76L235.82 180.81L235.86 180.86L235.9 180.91L235.93 180.96L235.97 181.02L236 181.08L236.03 181.13L236.05 181.19L236.08 181.25L236.1 181.32L236.12 181.38L236.14 181.44L236.15 181.51L236.16 181.57L236.17 181.64L236.18 181.71L236.18 181.77L236.18 181.84L236.18 208.51L236.18 208.58L236.18 208.65L236.17 208.71L236.16 208.78L236.15 208.84L236.14 208.91L236.12 208.97L236.1 209.04L236.08 209.1L236.05 209.16L236.03 209.22L236 209.27L235.97 209.33L235.93 209.39L235.9 209.44L235.86 209.49L235.82 209.54L235.78 209.59L235.74 209.64L235.7 209.69L235.65 209.73L235.6 209.77L235.55 209.81L235.5 209.85L235.45 209.89L235.4 209.93L235.34 209.96L235.28 209.99L235.23 210.02L235.17 210.04L235.11 210.07L235.04 210.09L234.98 210.11L234.92 210.13L234.85 210.14L234.79 210.15L234.72 210.16L234.65 210.17L234.59 210.17L234.52 210.18L201.18 210.18L201.18 243.51L201.18 243.58L201.18 243.65L201.17 243.71L201.16 243.78L201.15 243.84L201.14 243.91L201.12 243.97L201.1 244.04L201.08 244.1L201.05 244.16L201.03 244.22L201 244.27L200.97 244.33L200.93 244.39L200.9 244.44L200.86 244.49L200.82 244.54L200.78 244.59L200.74 244.64L200.7 244.69L200.65 244.73L200.6 244.77L200.55 244.81L200.5 244.85L200.45 244.89L200.4 244.93L200.34 244.96L200.28 244.99L200.23 245.02L200.17 245.04L200.11 245.07L200.04 245.09L199.98 245.11L199.92 245.13L199.85 245.14L199.79 245.15L199.72 245.16L199.65 245.17L199.59 245.17L199.52 245.18L172.85 245.18L172.78 245.17L172.71 245.17L172.65 245.16L172.58 245.15L172.52 245.14L172.45 245.13L172.39 245.11L172.32 245.09L172.26 245.07L172.2 245.04L172.14 245.02L172.09 244.99L172.03 244.96L171.97 244.93L171.92 244.89L171.87 244.85L171.82 244.81L171.77 244.77L171.72 244.73L171.67 244.69L171.63 244.64L171.59 244.59L171.54 244.54L171.51 244.49L171.47 244.44L171.43 244.39L171.4 244.33L171.37 244.27L171.34 244.22L171.32 244.16L171.29 244.1L171.27 244.04L171.25 243.97L171.23 243.91L171.22 243.84L171.21 243.78L171.2 243.71L171.19 243.65L171.19 243.58L171.18 243.51L171.18 210.18L137.85 210.18L137.78 210.17L137.71 210.17L137.65 210.16L137.58 210.15L137.52 210.14L137.45 210.13L137.39 210.11L137.32 210.09L137.26 210.07L137.2 210.04L137.14 210.02L137.09 209.99L137.03 209.96L136.97 209.93L136.92 209.89L136.87 209.85L136.82 209.81L136.77 209.77L136.72 209.73L136.67 209.69L136.63 209.64L136.59 209.59L136.54 209.54L136.51 209.49L136.47 209.44L136.43 209.39L136.4 209.33L136.37 209.27L136.34 209.22L136.32 209.16L136.29 209.1L136.27 209.04L136.25 208.97L136.23 208.91L136.22 208.84L136.21 208.78L136.2 208.71L136.19 208.65L136.19 208.58L136.18 208.51L136.18 181.84L136.19 181.77L136.19 181.71L136.2 181.64L136.21 181.57L136.22 181.51L136.23 181.44L136.25 181.38L136.27 181.32L136.29 181.25L136.32 181.19L136.34 181.13L136.37 181.08L136.4 181.02L136.43 180.96L136.47 180.91L136.51 180.86L136.54 180.81L136.59 180.76L136.63 180.71L136.67 180.66L136.72 180.62L136.77 180.58L136.82 180.54L136.87 180.5L136.92 180.46L136.97 180.43L137.03 180.39L137.09 180.36L137.14 180.33L137.2 180.31L137.26 180.28L137.32 180.26L137.39 180.24L137.45 180.22L137.52 180.21L137.58 180.2L137.65 180.19L137.71 180.18L137.78 180.18L137.85 180.18L171.18 180.18L171.18 146.84L171.19 146.77L171.19 146.71L171.2 146.64L171.21 146.57L171.22 146.51L171.23 146.44L171.25 146.38L171.27 146.32L171.29 146.25L171.32 146.19L171.34 146.13L171.37 146.08L171.4 146.02L171.43 145.96L171.47 145.91L171.51 145.86L171.54 145.81L171.59 145.76L171.63 145.71L171.67 145.66L171.72 145.62L171.77 145.58L171.82 145.54L171.87 145.5L171.92 145.46L171.97 145.43L172.03 145.39L172.09 145.36L172.14 145.33L172.2 145.31L172.26 145.28L172.32 145.26L172.39 145.24L172.45 145.22L172.52 145.21L172.58 145.2L172.65 145.19L172.71 145.18L172.78 145.18L172.85 145.18L199.52 145.18L199.59 145.18L199.65 145.18Z" id="d1TaRbENcw"></path></defs><g><g><g><use xlink:href="#d1TaRbENcw" opacity="1" fill-opacity="0" stroke="#fb887c" stroke-width="3" stroke-opacity="1"></use></g></g></g></svg>
